<svg xmlns="http://www.w3.org/2000/svg" viewBox="0 0 312.94 231.53"><defs><style>.cls-1{fill:#3d4054;}.cls-2{fill:#4460a3;}.cls-3{fill:#2c303f;}.cls-4{opacity:0.1;isolation:isolate;}.cls-5{fill:#8e656b;}.cls-6{fill:#cda38f;}.cls-7{fill:#cfcfe1;}.cls-8{fill:#f4f5f4;}.cls-9{fill:#deb3a3;}.cls-10{fill:#7a89be;}</style></defs><title>Recurso 7</title><g id="Capa_2" data-name="Capa 2"><g id="Capa_1-2" data-name="Capa 1"><path class="cls-1" d="M264.33,218.7c-2,7.75-9.16,12.59-9.16,12.59s-3.83-7.72-1.8-15.46,9.17-12.59,9.17-12.59S266.37,211,264.33,218.7Z"/><path class="cls-2" d="M261.25,217.06c-5.7,5.63-6.34,14.23-6.34,14.23s8.6-.54,14.3-6.17,6.33-14.22,6.33-14.22S266.94,211.44,261.25,217.06Z"/><path class="cls-3" d="M42.15,172.7H52.88l26.44-10.34s18.78-7.67,17.25,6.89-4.22,34.11-4.22,34.11-8.43-3.84-13-2.69-1.53-23.37-1.53-23.37-37.55,18-41,15.71-4.22-18.39-4.22-18.39Z"/><path class="cls-4" d="M42.15,172.7H52.88l26.44-10.34s18.78-7.67,17.25,6.89-4.22,34.11-4.22,34.11-8.43-3.84-13-2.69-1.53-23.37-1.53-23.37-37.55,18-41,15.71-4.22-18.39-4.22-18.39Z"/><path class="cls-5" d="M59.06,139.1l13,18.66,30.27,25.29s28,6.51,24.15,11.11-27.21-4.6-27.21-4.6-34.87-25.29-36-27.2-13.8-19.93-13.8-19.93Z"/><path class="cls-6" d="M59.06,139.1l13,18.66,30.27,25.29s28,6.51,24.15,11.11-27.21-4.6-27.21-4.6-34.87-25.29-36-27.2-13.8-19.93-13.8-19.93Z"/><path class="cls-7" d="M51.35,124l8.43,16.47s-1.92,8.05-5,8.82-16.1-10-16.1-10Z"/><path class="cls-4" d="M51.35,124l8.43,16.47s-1.92,8.05-5,8.82-16.1-10-16.1-10Z"/><path class="cls-3" d="M154.2,164.17l2.49,10.27a.69.69,0,0,1,0,.35l-11.29,35.3a.64.64,0,0,1-1.25-.12l-1.56-13.75a.88.88,0,0,1,0-.28L153,164.12a.65.65,0,0,1,.81-.41A.66.66,0,0,1,154.2,164.17Z"/><polygon class="cls-8" points="153.28 165.04 155.58 173.85 145.62 206.04 143.32 196.08 153.28 165.04"/><path class="cls-3" d="M103.08,212.94c.38,1.15,39.85-.39,40.24-.77a8.74,8.74,0,0,0,.84-1.53c.36-.77.69-1.53.69-1.53l-1.53-12.41-39.09-1.39s-1,10.52-1.18,15.33A11.13,11.13,0,0,0,103.08,212.94Z"/><polygon class="cls-4" points="138.34 198.38 139.1 209.11 121.86 209.11 121.86 198.38 138.34 198.38"/><polygon class="cls-4" points="116.11 201.82 116.21 201.81 115.73 206.42 106.15 206.42 106.15 201.82 116.11 201.82"/><path class="cls-4" d="M103.08,212.94c.38,1.15,39.85-.39,40.24-.77a8.74,8.74,0,0,0,.84-1.53H103.05A11.13,11.13,0,0,0,103.08,212.94Z"/><path class="cls-9" d="M57.1,84.18a17.25,17.25,0,1,1-17.25,17.25A17.24,17.24,0,0,1,57.1,84.18Z"/><path class="cls-9" d="M56,116.75s-5.75,10-6.9,15.33-17.24-10.73-17.24-10.73L29.7,115.8s15.13-7.09,14-12.84S56,116.75,56,116.75Z"/><path class="cls-9" d="M59,146.64l15.71,20.7,37.56,28s27.2,5.75,21.07,10-23.75-3.83-23.75-3.83-37.94-20.31-46-28.74-23-22.61-23-22.61Z"/><path class="cls-3" d="M37.94,178.83l4.6,7.28L70,177.48a21.56,21.56,0,0,1,18,2.17c4.79,3,7.86,7.81,1,14.89-13.79,14.18-23,6.52-23,6.52s-46.37,21.84-54,11.11-8-16.09-8-16.09S33.34,177.68,37.94,178.83Z"/><path class="cls-7" d="M95.42,204.12s12.26,8-2.3,11.88-25.29-1.53-25.29-1.53-12.65,0-12.65-6.51,4.22-7.29,4.22-7.29l13,1.92S88.14,198.38,95.42,204.12Z"/><path class="cls-3" d="M71.24,97.09a13,13,0,0,0,3.62,1.29A3.28,3.28,0,0,0,78.19,97a4.54,4.54,0,0,0,.38-2c0-2.11-.11-4.38-1.44-6-.85-1-2.09-1.69-3-2.7a12.47,12.47,0,0,1-1.5-2.45c-1.7-3.21-4.23-6.29-7.75-7.22a17.16,17.16,0,0,0-4.53-.34l-8.85.12a15.6,15.6,0,0,0-4.26.46c-2.85.86-4.92,3.26-6.82,5.55a34.35,34.35,0,0,0-3.91,5.4A18.8,18.8,0,0,0,34.29,97a8.46,8.46,0,0,0,.32,2.45,13.6,13.6,0,0,0,1,2.13c1.66,3.26,2.65,7.33.78,10.48,3.25-1.33,6.46-3.07,8.6-5.85,1-1.24,1.71-2.7,3-3.61s3.36-1,4.18.35a3.79,3.79,0,0,1,.42,1.75,8.14,8.14,0,0,0,.48,3,2.22,2.22,0,0,0,2.41,1.38c1.67-.47,1.51-3,2.8-4.2,1-.88,2.48-.71,3.73-1.11a5.58,5.58,0,0,0,3.19-3.13c.47-1.07.46-3.86,1.36-4.43C67.64,95.47,70.2,96.62,71.24,97.09Z"/><path class="cls-7" d="M28.33,114a4.54,4.54,0,0,1,2.37,0c2.46.67,8,2.41,9.15,5.07,1.54,3.45,6.9,8.82,6.9,8.82s7.28,7.28,5.75,12.26-7.28,10.73-7.28,10.73,1.53,23.76-6.13,29.89-10.73,1.92-10.73,7.66S4.6,212.17,0,201.06c0,0,2.3-20.69,1.53-28S1.88,121.14,28.33,114Z"/><path class="cls-7" d="M40.62,123.65S64,140.9,59.78,148.18c0,0-14.18,6.9-17.24,6.51s-14.95-13.79-18-14.94S19.93,117.9,40.62,123.65Z"/><path class="cls-8" d="M150.52,89.65a15.19,15.19,0,1,1-15.19,15.19A15.19,15.19,0,0,1,150.52,89.65Z"/><path class="cls-1" d="M265.23,38.37H173.9V19.26h91.33ZM174.3,38h90.53V19.67H174.3Z"/><rect class="cls-2" x="167.66" y="23.09" width="90.93" height="18.71"/><path class="cls-10" d="M112.84,4.71a1.41,1.41,0,1,1-1.41,1.41A1.41,1.41,0,0,1,112.84,4.71Z"/><path class="cls-10" d="M117.67,4.71a1.41,1.41,0,1,1-1.41,1.41A1.41,1.41,0,0,1,117.67,4.71Z"/><path class="cls-10" d="M122.5,4.71a1.41,1.41,0,1,1-1.41,1.41A1.41,1.41,0,0,1,122.5,4.71Z"/><path class="cls-1" d="M275.54,110.24H106.15V0H275.54Zm-169-.4H275.14V.4H106.56Z"/><rect class="cls-1" x="106.36" y="6.1" width="168.99" height="0.4"/><path class="cls-1" d="M110.58,4.83a1.61,1.61,0,1,1,1.61-1.61A1.61,1.61,0,0,1,110.58,4.83Zm0-2.82a1.21,1.21,0,1,0,1.21,1.21A1.21,1.21,0,0,0,110.58,2Z"/><path class="cls-1" d="M115.41,4.83A1.61,1.61,0,1,1,117,3.22,1.61,1.61,0,0,1,115.41,4.83Zm0-2.82a1.21,1.21,0,1,0,1.21,1.21A1.21,1.21,0,0,0,115.41,2Z"/><path class="cls-1" d="M120.24,4.83a1.61,1.61,0,1,1,1.61-1.61h0A1.62,1.62,0,0,1,120.24,4.83Zm0-2.82a1.21,1.21,0,1,0,1.2,1.21h0A1.21,1.21,0,0,0,120.24,2Z"/><rect class="cls-1" x="159.21" y="6.3" width="0.4" height="103.9"/><rect class="cls-8" x="195.08" y="102.83" width="27.56" height="3.75"/><rect class="cls-8" x="254.56" y="64.09" width="34.35" height="4.67"/><path class="cls-1" d="M209.81,59.6h-30V55.17h30Zm-29.58-.4h29.18V55.58H180.23Z"/><rect class="cls-8" x="200.58" y="100.3" width="34.35" height="4.67"/><path class="cls-1" d="M209.81,90.78h-30V86.35h30Zm-29.58-.4h29.18V86.76H180.23Z"/><rect class="cls-8" x="178.52" y="72.57" width="76.04" height="4.02"/><path class="cls-1" d="M256.38,75.19H179.93V70.76h76.45Zm-76-.4H256V71.17H180.33Z"/><path class="cls-1" d="M256.28,59.6h-30V55.17h30Zm-29.57-.4h29.17V55.58H226.71Z"/><path class="cls-1" d="M133.37,71.58A16.55,16.55,0,1,1,149.92,55,16.55,16.55,0,0,1,133.37,71.58Zm0-32.6a16,16,0,1,0,16,16.05A16,16,0,0,0,133.37,39Z"/><rect class="cls-1" x="230.53" y="230.95" width="82.42" height="0.58"/></g></g></svg>