<svg xmlns="http://www.w3.org/2000/svg" viewBox="0 0 337.06 195.74"><defs><style>.cls-1{fill:#deb3a3;}.cls-2{fill:#2c303f;}.cls-3{opacity:0.1;isolation:isolate;}.cls-4{fill:#cda38f;}.cls-5{fill:#cfcfe1;}.cls-6{fill:#4460a3;}.cls-7{fill:#3d4054;}.cls-8{fill:#6d8ac1;}.cls-9{fill:#f4f5f4;}</style></defs><title>Recurso 8</title><g id="Capa_2" data-name="Capa 2"><g id="Capa_1-2" data-name="Capa 1"><polygon class="cls-1" points="24.16 177.25 16.43 176.74 19.01 188.33 27.77 184.72 24.16 177.25"/><polygon class="cls-2" points="95.01 155.61 76.97 138.09 66.67 146.08 46.31 170.55 48.64 174.16 73.37 157.41 90.11 179.31 106.08 171.32 95.01 155.61"/><polygon class="cls-3" points="95.01 155.61 76.97 138.09 66.67 146.08 46.31 170.55 48.64 174.16 73.37 157.41 90.11 179.31 106.08 171.32 95.01 155.61"/><path class="cls-1" d="M96.55,167.2,94.23,169l-18.8-6.44-4.38-1.81-8.76,1.81s0-7.22,8.24-7l8.5,2.06,10,.77Z"/><polygon class="cls-2" points="113.3 186.27 107.63 189.87 100.93 189.87 69.76 178.28 24.16 186.52 22.87 176.74 64.61 158.44 101.19 170.55 113.3 186.27"/><path class="cls-4" d="M76.71,140.41l-3.86.77-.84-1a5.2,5.2,0,0,1-.7-5.71h0l10.81-14.17s3.1-7,8-4.13S86,123.67,86,123.67l-5.41,8.5.52,4.38Z"/><path class="cls-1" d="M101.19,103.57a10.05,10.05,0,1,1-10,10.05A10.05,10.05,0,0,1,101.19,103.57Z"/><path class="cls-1" d="M96.68,121,101.32,132l11.08-4.64s-3.61-8.76-3.61-9S96.68,121,96.68,121Z"/><path class="cls-5" d="M127.19,153.73a57.62,57.62,0,0,1-2.84,17.86l-.75,2.31L120,190.39l-3.86,1-2.83-3.61-5.67-4.12-4.12-6.7L100,171.1l-1.1-1.84L95,149.94,80.32,141.7l-4.89-.77,1-2.84,4.38-5.92,4.38-.52,1.28-1,1,.52,4.12-2.32,1.29.51,7.53.7,4.57-.95,6.58-3.54,2.7.44,9.27,7.73A57.74,57.74,0,0,1,127.19,153.73Z"/><path class="cls-2" d="M18.8,181.24s2.31-3.91,1.34-4.37S15,174.6,15,174.6l-6.07-2S.2,159.57,0,170.89s6.38,14,6.38,14,5.86,12.61,9.18,10.6,6.64-8.84,6.64-8.84S16.21,183.47,18.8,181.24Z"/><polygon class="cls-3" points="124.38 151.49 114.59 157.93 99.97 171.1 98.87 169.26 95.78 153.81 96.55 153.81 104.54 139.12 124.38 151.49"/><polygon class="cls-5" points="104.54 137.58 96.55 152.26 93.72 152.26 91.92 157.41 87.79 158.44 98.87 170.55 114.59 156.38 124.38 149.94 104.54 137.58"/><path class="cls-2" d="M93.37,106.15l-1.08.42a1.52,1.52,0,0,1-.41-2.11l0,0-2-.09a15.18,15.18,0,0,1,21.26-3,13.53,13.53,0,0,1,1.41,1.2c.1-.32,1.09.3,1.5.92.14-.52,1.07,2,1.4,3.72.16-.58.75.36.23,1.26.33,0,.48.79.22,1.26.36-.17.3.83-.09,1.5.51,0-4,7-5.86,11.11-.54-2.45-1.14-5-2.86-6.86-.29-.31-.61-.59-.93-.87L104.44,113c-2-1.77-3.84-4-6.52-4.63-1.84-.45-3-.56-2-2.63-.91.38-1.75.94-2.67,1.29C93.26,106.76,93.39,106.44,93.37,106.15Z"/><path class="cls-1" d="M106.21,113a1.81,1.81,0,1,1-1.8,1.81A1.81,1.81,0,0,1,106.21,113Z"/><rect class="cls-6" x="73.98" y="23.31" width="12.67" height="12.67"/><path class="cls-7" d="M94.34,28.74H79V13.35H94.34Zm-14.72-.67h14V14h-14Z"/><rect class="cls-6" x="15.87" y="63.96" width="12.67" height="12.67" transform="translate(-18.46 8.8) rotate(-15.94)"/><path class="cls-7" d="M26.93,83.54,22.7,68.75l14.8-4.23,4.22,14.8ZM23.53,69.2l3.86,13.51,13.5-3.85L37,65.35Z"/><rect class="cls-6" x="20.25" y="2.62" width="12.67" height="12.67" transform="translate(1.89 22.26) rotate(-46.94)"/><path class="cls-7" d="M17.67,19.82,28.17,8.58l11.24,10.5L28.91,30.33ZM28.21,9.52l-9.6,10.27,10.27,9.59,9.59-10.26Z"/><path class="cls-7" d="M319.56,57.32h-81V55.65H201.81v1.67H120.46A5.49,5.49,0,0,0,115,62.8h0V173.74a5.49,5.49,0,0,0,5.48,5.48h199.1a5.48,5.48,0,0,0,5.48-5.48V62.8a5.48,5.48,0,0,0-5.48-5.48Z"/><rect class="cls-6" x="122.33" y="67.01" width="195.37" height="110.21"/><path class="cls-8" d="M219.84,60a2,2,0,1,1-2,2A2,2,0,0,1,219.84,60Z"/><polygon class="cls-3" points="261.82 177.21 122.33 177.21 122.33 67.01 261.82 177.21"/><path class="cls-9" d="M152.9,131.41a18.78,18.78,0,1,1-18.78,18.78A18.78,18.78,0,0,1,152.9,131.41Z"/><path class="cls-7" d="M157.08,164.3a23.36,23.36,0,1,1,23.36-23.36A23.36,23.36,0,0,1,157.08,164.3Zm0-46.41a23.06,23.06,0,1,0,23,23,23.05,23.05,0,0,0-23-23Z"/><rect class="cls-7" x="265.43" y="126.44" width="18.25" height="3.81"/><rect class="cls-7" x="243.37" y="96.75" width="62.38" height="1.64"/><rect class="cls-7" x="243.37" y="101.93" width="62.38" height="1.63"/><rect class="cls-7" x="243.37" y="107.1" width="62.38" height="1.63"/><rect class="cls-7" x="243.37" y="112.28" width="62.38" height="1.63"/><rect class="cls-7" x="243.37" y="117.45" width="62.38" height="1.63"/><rect class="cls-9" x="298.11" y="69.24" width="7.63" height="7.63"/><path class="cls-7" d="M309.28,80.41H300V71.15h9.26Zm-8.86-.4h8.46V71.55h-8.46Z"/><path class="cls-7" d="M330.53,175.21H311.46v-1.37a.28.28,0,0,0-.27-.28h-6.54a.28.28,0,0,0-.27.28h0v1.37h-4.09v-1.37a.28.28,0,0,0-.27-.28h-6.54a.28.28,0,0,0-.27.28h0v1.37h-4.08v-1.37a.29.29,0,0,0-.28-.28h-6.53a.29.29,0,0,0-.28.28h0v1.37H278v-1.37a.28.28,0,0,0-.27-.28h-6.54a.28.28,0,0,0-.27.28h0v1.37h-4.09v-1.37a.28.28,0,0,0-.27-.28H260a.28.28,0,0,0-.27.28h0v1.37h-4.09v-1.37a.28.28,0,0,0-.27-.28h-6.54a.28.28,0,0,0-.27.28h0v1.37h-4.08v-1.37a.29.29,0,0,0-.28-.28H193a.29.29,0,0,0-.28.28h0v1.37h-4.08v-1.37a.28.28,0,0,0-.27-.28h-6.54a.28.28,0,0,0-.27.28h0v1.37h-4.09v-1.37a.28.28,0,0,0-.27-.28h-6.54a.28.28,0,0,0-.27.28h0v1.37h-4.09v-1.37a.28.28,0,0,0-.27-.28h-6.53a.28.28,0,0,0-.28.28h0v1.37h-4.08v-1.37a.28.28,0,0,0-.27-.28h-6.54a.28.28,0,0,0-.27.28h0v1.37H144v-1.37a.28.28,0,0,0-.27-.28h-6.54a.28.28,0,0,0-.27.28h0v1.37h-4.09v-1.37a.28.28,0,0,0-.27-.28H126a.28.28,0,0,0-.27.28h0v1.37H113.17a6.54,6.54,0,0,0-6.54,6.54v2.95a6.54,6.54,0,0,0,6.54,6.54H330.53a6.53,6.53,0,0,0,6.53-6.54v-2.95A6.53,6.53,0,0,0,330.53,175.21Z"/></g></g></svg>