<svg xmlns="http://www.w3.org/2000/svg" viewBox="0 0 595.38 247.37"><defs><style>.cls-1{fill:#3d4054;}.cls-2{fill:#e3b6b8;}.cls-3{fill:#cfcfe1;}.cls-4{fill:#2c303f;}.cls-5{opacity:0.1;isolation:isolate;}.cls-6{fill:#f7f7f7;}.cls-7{fill:#4460a3;}</style></defs><title>Recurso 9</title><g id="Capa_2" data-name="Capa 2"><g id="Capa_1-2" data-name="Capa 1"><path class="cls-1" d="M595.38,247.37H0V72.5q287-145,595.38,0Z"/><path class="cls-2" d="M247.72,116.4l5.5,17a87.72,87.72,0,0,0-2.62,33.68c2.35,17.75,1.05,18.27,1.05,18.27S228.11,184,230.47,191,255.83,194,255.83,194s4.42-1.19,6.52-13.72,7.36-36.67,7.36-36.67l-5-22.79Z"/><path class="cls-3" d="M249.55,81.68s-10,3.66-10,13.57,3.67,23.5,6,24.29,18.07,11.48,20.94,3.91S249.55,81.68,249.55,81.68Z"/><polygon class="cls-2" points="332.78 199.17 353.72 198.39 369.69 196.04 364.98 211.7 326.24 212.75 332.78 199.17"/><path class="cls-4" d="M362.88,201.26s-.26-5.74-2.61-5.48-.79-2.09,1.3-2.62,8.12-3.13,8.12-3.13l23.81,1.57s15.45,13.58,9.17,20.89-22.51.78-22.51.78l-17.54.26S356.86,204.13,362.88,201.26Z"/><polygon class="cls-2" points="372.3 181.16 379.89 216.66 395.6 213.53 386.7 169.15 377.28 164.18 372.3 181.16"/><path class="cls-4" d="M282,176.72s-44,19.84-25.38,39.94c0,0,0,9.4,19.63,7.58s57.58-5.22,59.41-4.18,7.59-20.63,2.62-21.67-11-2.35-11-2.35,5.24-.79,5.24-5.22c0,0,14.92-1,19.37-10.45s8.64-16.45,8.64-16.45L370.73,190s11.78-21.67,20.68-12c0,0-9.94-62.4-17.53-68.14s-12.83-7.57-19.9-2.35-13.61,18.53-13.61,18.53Z"/><path class="cls-4" d="M387,206a58.13,58.13,0,0,0-5.23,4.44c-2.1,2.09-5,1-5.24,0s-5,.78-5.49,8.35-3.67,14.36,4.71,16.71,8.11,9.14,8.11,9.14a28.32,28.32,0,0,0,21.2,1.31c11.78-3.92,7.59-8.1,7.59-8.1L396.91,212S392.72,204.13,387,206Z"/><path class="cls-2" d="M343.52,76.46s25.12,8.61,27.74,10.44,14.39,10.44,8.63,14.88-10.46,7.31-21.72,3.92-23.82-13.84-23.82-13.84Z"/><path class="cls-3" d="M318.39,65s9.94-1.83,17,2.09,13.09,11.75,13.09,11.75-6.55,13.84-11.26,15.92-13.35-8.35-13.35-8.35Z"/><path class="cls-2" d="M272.58,57.4s.27,10.18-.78,11.22,12.56,31.86,27.48,18.28,3.41-19.06,3.41-19.06-5.5-10.18-5.24-11.23-24.34,0-24.34,0Z"/><path class="cls-5" d="M272.58,57.4s.27,10.18-.78,11.22,12.56,31.86,27.48,18.28,3.41-19.06,3.41-19.06-5.5-10.18-5.24-11.23-24.34,0-24.34,0Z"/><path class="cls-3" d="M276.77,77s10,6.79,14.13,5.22,9.43-8.35,10-8.88,27.22,53,27.22,53-3.92,19.59-14.39,25.33S303.34,162,302,165.88s-18.19-12.4-18.19-12.4l-10.73-45.43V80.37Z"/><path class="cls-3" d="M272.46,64.84a8.47,8.47,0,0,0-6.68,2.22c-3.4,2.87-19.37,13.58-18.58,14.62s7.85,15.93,9.42,21.93,3.92,6.79,3.92,6.79,5.5,3.92,4.72,6.79-4.19,42,.52,50.65,3.93,16.19,2.62,18.28,12.56-6,12.56-6,20.68-16.71,22.25-21.67A59,59,0,0,0,305.3,148S292,95.25,287.77,92.38,272.46,64.84,272.46,64.84Z"/><path class="cls-3" d="M301.21,65.05s6.45-4,7.76-2.95,13.61,1,13.87,2.08.78,26.11,9.68,32.64,3.14,19.58,3.14,19.58l6.54,10.45S306.61,161.05,309,149.3c.13-.65,0-.78,0-.78s-13.87-59.27-12.05-62.4S302.09,68.78,301.21,65.05Z"/><path class="cls-2" d="M356.08,89l-35.6,12.27s-35.33,8.36-29.84,18,28.8-6.79,28.8-6.79l47.39-5.3S385.65,91.34,356.08,89Z"/><path class="cls-2" d="M286.72,28.41a19.33,19.33,0,1,1-19.37,19.33A19.35,19.35,0,0,1,286.72,28.41Z"/><path class="cls-4" d="M271.29,28.53l-3.58-1.29s7.49-7.48,17.92-6.83l-2.94-2.92s7.17-2.6,13.68,4.22c3.43,3.59,7.39,7.81,9.86,12.55h3.83l-1.6,3.2,5.61,3.19-5.75-.57a16.13,16.13,0,0,1-.55,8.27l-1.3,3.58s-5.21-10.4-5.21-11.7v3.25s-3.59-2.92-3.59-4.87l-1.95,2.27-1-3.57-12.05,3.57,2-2.92-7.49,1,2.93-3.57s-8.47,4.22-8.8,7.8-4.56,8.12-4.56,8.12l-2-3.25S261.85,33.41,271.29,28.53Z"/><path class="cls-6" d="M502.13,247.37l-1.81,0a417.2,417.2,0,0,1,6.44-59.93c7.84-42.39,20.87-70.22,38.73-82.74l1,1.48C504.8,135.38,502.15,246.26,502.13,247.37Z"/><path class="cls-6" d="M524.79,246.94l-1.81,0c0-2,1.17-49.2,19.79-62.25l1,1.49C525.94,198.66,524.8,246.46,524.79,246.94Z"/><path class="cls-7" d="M556.85,88.23a9,9,0,1,1-9.06,9A9.05,9.05,0,0,1,556.85,88.23Z"/><path class="cls-7" d="M552.36,166a9,9,0,1,1-9.06,9A9,9,0,0,1,552.36,166Z"/><path class="cls-7" d="M520.57,111.73a40.07,40.07,0,0,1-2.74,20.56s-7.2-7.89-8.9-18.74S511.66,93,511.66,93,518.86,100.88,520.57,111.73Z"/><path class="cls-6" d="M550.17,138a40.69,40.69,0,0,1-20.77.94A36.94,36.94,0,0,1,567.12,126,40.37,40.37,0,0,1,550.17,138Z"/><path class="cls-6" d="M550.53,207a28.22,28.22,0,0,1-14.56.63,25.75,25.75,0,0,1,26.44-9.05A28.16,28.16,0,0,1,550.53,207Z"/><path class="cls-6" d="M484.84,86.07a7.8,7.8,0,1,1,7.82-7.8h0A7.81,7.81,0,0,1,484.84,86.07Zm0-14.4a6.6,6.6,0,1,0,6.61,6.6h0A6.61,6.61,0,0,0,484.84,71.67Z"/><path class="cls-6" d="M448.15,117.08a4.8,4.8,0,1,1-4.81,4.8A4.8,4.8,0,0,1,448.15,117.08Z"/><path class="cls-6" d="M53.65,99.71a7.48,7.48,0,1,1-7.5,7.48A7.49,7.49,0,0,1,53.65,99.71Z"/><path class="cls-6" d="M146,187.18H121.63V162.87H146Zm-22.5-1.87h20.63V164.74H123.51Z"/></g></g></svg>